<svg width="53" height="38" viewBox="0 0 53 38" fill="none" xmlns="http://www.w3.org/2000/svg">
<path d="M0 28.8815V30.9249H52.725V29.4806C52.725 27.3429 52.5767 25.3121 52.286 23.3838H0.389019C0.136584 25.1033 0 26.9325 0 28.8815Z" fill="url(#paint0_linear)"/>
<path d="M8.23287 7.36055C6.75293 8.83778 5.3929 10.5255 4.22266 12.452H48.4284C47.5308 10.9949 46.4966 9.63601 45.3174 8.38151C44.1313 7.11967 42.8505 6.01351 41.4799 5.05469H10.8552C9.9398 5.75534 9.07026 6.52458 8.23287 7.36055Z" fill="url(#paint1_linear)"/>
<path d="M52.725 32.6919H0V37.5001H52.725V32.6919Z" fill="url(#paint2_linear)"/>
<path d="M3.23568 14.2188C2.12742 16.3986 1.25471 18.8545 0.695312 21.616H51.9717C51.423 18.9321 50.5687 16.4683 49.4167 14.2188H3.23568Z" fill="url(#paint3_linear)"/>
<path d="M38.5021 3.28763C34.7973 1.43431 30.5331 0.5 25.6999 0.5C20.6435 0.5 16.7753 1.50422 13.5449 3.28763H38.5021Z" fill="url(#paint4_linear)"/>
<path d="M19.1046 20.1662H16.9212C16.5621 20.1677 16.0856 20.4038 16.0859 21.046C16.0862 21.6262 16.0859 23.7248 16.0859 26.1107C16.1582 26.6788 16.256 26.8186 16.6407 27.1007C17.0067 27.3691 17.3102 27.3826 17.6992 27.3826C18.0219 27.3826 20.3172 27.3826 21.0092 27.3695C20.6133 27.377 21.6486 27.3209 21.9786 27.5749C22.5525 28.0167 22.49 28.9819 22.4889 30.1877C22.4864 32.6509 22.4803 35.7815 22.4889 37.486C24.6089 37.486 29.5269 37.4999 29.5269 37.4999C29.5269 37.4999 29.5269 30.0812 29.5269 25.6937C29.5269 25.6937 29.5269 24.0595 30.8533 24.0503C32.2138 24.041 34.529 24.0264 34.529 24.0264C34.529 24.0264 35.958 24.0963 35.958 22.558C35.958 21.0197 35.924 15.9852 35.924 15.9852C35.924 15.9852 35.9626 15.0765 34.8736 15.0765C33.377 15.0765 34.8042 15.0765 33.4069 15.0765C33.4069 15.0765 32.2939 15.0043 32.2939 15.9306C32.2939 16.8053 32.2939 19.6736 32.2939 19.6736C32.2939 19.6736 32.2399 20.4691 31.4938 20.4691C30.732 20.4691 30.0957 20.4691 30.1799 20.4691C30.1799 20.4691 29.5014 20.4635 29.5014 19.6936C29.5014 18.9304 29.4956 11.5456 29.4956 11.5456C29.4956 11.5456 29.5382 10.4963 28.4837 10.4964C26.8636 10.4964 22.8076 10.4964 23.6876 10.4964C23.6876 10.4964 22.4882 10.4048 22.4889 11.5469C22.4761 12.6119 22.4968 23.1151 22.4889 23.0824C22.4889 23.0824 22.4891 24.0264 21.8759 24.0264C21.2812 24.0264 20.626 24.0264 20.626 24.0264C20.626 24.0264 19.8546 24.098 19.8358 22.9423C19.8323 22.7236 19.8358 21.0416 19.8358 21.0416C19.8359 20.4038 19.4447 20.1808 19.1046 20.1662Z" fill="#0D1A4E"/>
<defs>
<linearGradient id="paint0_linear" x1="23.8609" y1="13.6827" x2="26.9634" y2="32.1027" gradientUnits="userSpaceOnUse">
<stop stop-color="#3D84E6"/>
<stop offset="1" stop-color="#1254CB"/>
</linearGradient>
<linearGradient id="paint1_linear" x1="26.4598" y1="13.2448" x2="29.5624" y2="31.6648" gradientUnits="userSpaceOnUse">
<stop stop-color="#3D84E6"/>
<stop offset="1" stop-color="#1254CB"/>
</linearGradient>
<linearGradient id="paint2_linear" x1="22.7663" y1="13.8669" x2="25.8688" y2="32.287" gradientUnits="userSpaceOnUse">
<stop stop-color="#3D84E6"/>
<stop offset="1" stop-color="#1254CB"/>
</linearGradient>
<linearGradient id="paint3_linear" x1="24.9581" y1="13.497" x2="28.0606" y2="31.917" gradientUnits="userSpaceOnUse">
<stop stop-color="#3D84E6"/>
<stop offset="1" stop-color="#1254CB"/>
</linearGradient>
<linearGradient id="paint4_linear" x1="27.6756" y1="13.0399" x2="30.7782" y2="31.4599" gradientUnits="userSpaceOnUse">
<stop stop-color="#3D84E6"/>
<stop offset="1" stop-color="#1254CB"/>
</linearGradient>
</defs>
</svg>
